# xmcd CD database file generated by Grip 2.91
# 
# Track frame offsets:
#       150
#       13860
#       25107
#       42640
#       61665
#       72200
#       92630
#       103800
#       118557
#       131945
#       139765
#       151180
# 
# Disc length: 2111 seconds
# 
# Revision: 3
# Processed by: cddbd v1.4b41PL1 Copyright (c) Steve Scherf et al.
# Submitted via: Grip 2.91
# 
DISCID=a2083d0c
DTITLE=Paul "Wine" Jones - Pucker Up Buttercup
DYEAR=1900
DGENRE=
TTITLE0=Roll that Woman
TTITLE1=Goin' Back Home
TTITLE2=Pucker Up Buttercup
TTITLE3=Hangin' with the Boys
TTITLE4=Lead Me On
TTITLE5=Don't Laugh at Me
TTITLE6=I'm Gonna Leave
TTITLE7=Dee Dee Dee
TTITLE8=Hard Way to Go
TTITLE9=Instrumental #99
TTITLE10=Further on up the Road
TTITLE11=Guess I Just Fucked It All Up
EXTD=
EXTT0=
EXTT1=
EXTT2=
EXTT3=
EXTT4=
EXTT5=
EXTT6=
EXTT7=
EXTT8=
EXTT9=
EXTT10=
EXTT11=
PLAYORDER=
